<svg xmlns="http://www.w3.org/2000/svg" width="1136.496" height="1136.47" viewBox="0 0 1136.496 1136.47"><g transform="translate(844.673 945.75) rotate(156)" fill="none" opacity="0.999"><path d="M238.685,42.481c184.632,80.888,307.129,214.9,288.909,420.084S495.55,792.953,279.452,836.357s-498.1,163.808-597.309-234.6S54.052-38.408,238.685,42.481Z" stroke="none"/><path d="M 154.2720031738281 27.92767333984375 C 139.0330657958984 27.92767333984375 122.9240036010742 29.1134033203125 106.3921356201172 31.451904296875 C 89.90933227539062 33.78363037109375 72.82186889648438 37.2872314453125 55.60466766357422 41.86553955078125 C 38.29946899414062 46.46710205078125 20.66720581054688 52.20660400390625 3.197601318359375 58.924560546875 C -14.49826049804688 65.72967529296875 -32.2427978515625 73.62188720703125 -49.54292297363281 82.3824462890625 C -67.18972778320312 91.31829833984375 -84.61439514160156 101.2799072265625 -101.3330688476562 111.9901733398438 C -118.4857330322266 122.9785766601562 -135.1592102050781 134.9251098632812 -150.8902587890625 147.498046875 C -184.0248107910156 173.98046875 -213.39453125 203.490966796875 -238.1837158203125 235.210205078125 C -247.6105346679688 247.2723388671875 -256.4681396484375 259.7916259765625 -264.5105285644531 272.4202880859375 C -272.7698669433594 285.389404296875 -280.3747863769531 298.7969970703125 -287.1144104003906 312.2705688476562 C -294.0385437011719 326.1129760742188 -300.2247924804688 340.37646484375 -305.50146484375 354.6651000976562 C -310.9234619140625 369.3471069335938 -315.5249328613281 384.4346923828125 -319.1778564453125 399.5086059570312 C -322.9314575195312 414.9976196289062 -325.781982421875 430.8776245117188 -327.6499938964844 446.7076416015625 C -329.5691833496094 462.9710998535156 -330.5021362304688 479.6125793457031 -330.4230651855469 496.1696472167969 C -330.3418579101562 513.17578125 -329.1905212402344 530.5477905273438 -327.0011901855469 547.802978515625 C -324.7532043457031 565.52001953125 -321.3502502441406 583.5916748046875 -316.8868103027344 601.515869140625 C -313.3910522460938 615.5540771484375 -309.5874633789062 629.2413330078125 -305.5818786621094 642.1976318359375 C -301.6394653320312 654.94921875 -297.3898620605469 667.353271484375 -292.9510498046875 679.0651245117188 C -288.5853271484375 690.5843505859375 -283.9129333496094 701.759765625 -279.0638732910156 712.2811279296875 C -274.2977294921875 722.6221923828125 -269.2259826660156 732.6243286132812 -263.9893188476562 742.0096435546875 C -258.8464050292969 751.2268676757812 -253.3984069824219 760.11083984375 -247.7969360351562 768.41455078125 C -242.3002624511719 776.5628662109375 -236.4994506835938 784.3839111328125 -230.5556030273438 791.6607055664062 C -224.728271484375 798.7949829101562 -218.5974731445312 805.609130859375 -212.3334655761719 811.9139404296875 C -206.1982727050781 818.089111328125 -199.7601318359375 823.9520263671875 -193.1978759765625 829.3397827148438 C -186.77734375 834.6112670898438 -180.0539855957031 839.5787353515625 -173.2147827148438 844.1043090820312 C -166.5310668945312 848.5269775390625 -159.544677734375 852.6546020507812 -152.449462890625 856.37255859375 C -145.5248107910156 860.001220703125 -138.2967834472656 863.3442993164062 -130.9661254882812 866.3089599609375 C -123.8229370117188 869.19775390625 -116.3750610351562 871.8110961914062 -108.82958984375 874.0762939453125 C -101.4905242919922 876.279541015625 -93.84492492675781 878.2176513671875 -86.10505676269531 879.8368530273438 C -78.59346008300781 881.408203125 -70.77212524414062 882.7254028320312 -62.8583984375 883.7517700195312 C -47.82479858398438 885.70166015625 -31.74546813964844 886.6903076171875 -15.06692504882812 886.6903076171875 C 1.988533020019531 886.6903076171875 19.63573455810547 885.708740234375 38.88280487060547 883.6893920898438 C 55.96946716308594 881.896728515625 73.88386535644531 879.326416015625 93.64987182617188 875.831787109375 C 130.2813415527344 869.3553466796875 167.1119995117188 860.7548217773438 202.7298583984375 852.4373779296875 C 229.3442687988281 846.222412109375 254.482666015625 840.3521728515625 279.2550659179688 835.3765869140625 C 292.6126708984375 832.6936645507812 305.4400024414062 829.6389770507812 317.3809204101562 826.2974853515625 C 329.2070922851562 822.9881591796875 340.537353515625 819.29296875 351.0570678710938 815.314453125 C 361.453857421875 811.38232421875 371.3892211914062 807.048583984375 380.5873413085938 802.433349609375 C 389.6575927734375 797.88232421875 398.3012084960938 792.9119262695312 406.2782592773438 787.66015625 C 414.1254577636719 782.4940185546875 421.5814819335938 776.88818359375 428.439208984375 770.9987182617188 C 435.16748046875 765.2203369140625 441.540283203125 758.979248046875 447.3807983398438 752.44873046875 C 453.09375 746.0608520507812 458.4876098632812 739.1829833984375 463.4128112792969 732.0061645507812 C 468.2126770019531 725.0120239257812 472.7306823730469 717.4954833984375 476.8413391113281 709.66552734375 C 480.8290710449219 702.06982421875 484.5728149414062 693.912841796875 487.9688110351562 685.4212646484375 C 491.2435913085938 677.2328491210938 494.3141479492188 668.4346923828125 497.0949401855469 659.271240234375 C 502.3106689453125 642.08447265625 506.7080078125 623.1080322265625 510.5382690429688 601.2579345703125 C 513.866943359375 582.269775390625 516.736572265625 561.4220581054688 519.5692138671875 535.648681640625 C 522.1206665039062 512.433349609375 524.3494873046875 487.7897644042969 526.59716796875 462.4768371582031 C 527.721435546875 449.8157653808594 528.3213500976562 437.178955078125 528.3798828125 424.917236328125 C 528.437744140625 412.8045654296875 527.9689331054688 400.7216186523438 526.98681640625 389.0043334960938 C 526.0166625976562 377.4306030273438 524.5186767578125 365.8920288085938 522.534423828125 354.7095336914062 C 520.57470703125 343.6652221679688 518.0863037109375 332.66162109375 515.1381225585938 322.0044555664062 C 512.2269287109375 311.4800415039062 508.7866821289062 301.0015258789062 504.9132080078125 290.8601684570312 C 501.088134765625 280.8458862304688 496.7346801757812 270.8829956054688 491.9736022949219 261.2479248046875 C 487.2726745605469 251.7344360351562 482.0441284179688 242.2774047851562 476.4334716796875 233.1392211914062 C 470.8938598632812 224.1172485351562 464.8285217285156 215.15673828125 458.4058837890625 206.5062866210938 C 452.0653381347656 197.9667358398438 445.2012023925781 189.4935302734375 438.0042724609375 181.322021484375 C 430.8999938964844 173.2559204101562 423.2753295898438 165.2611083984375 415.3420104980469 157.5596313476562 C 407.5117492675781 149.9583129882812 399.1646728515625 142.43310546875 390.5329284667969 135.193115234375 C 382.0140075683594 128.0479125976562 372.9829406738281 120.983642578125 363.6907958984375 114.1965942382812 C 345.46826171875 100.88671875 325.5082702636719 88.1064453125 304.3652038574219 76.2105712890625 C 283.7814636230469 64.62939453125 261.5482788085938 53.589111328125 238.283203125 43.396728515625 C 226.5506591796875 38.256591796875 213.4053344726562 34.33935546875 199.2125396728516 31.7537841796875 C 185.2760009765625 29.2149658203125 170.1557312011719 27.92767333984375 154.2720031738281 27.92767333984375 M 154.2720642089844 26.9276123046875 C 185.9880065917969 26.9276123046875 214.73779296875 31.989501953125 238.6845397949219 42.480712890625 C 423.3169250488281 123.369140625 545.813720703125 257.3761596679688 527.5933227539062 462.5652465820312 C 509.3729248046875 667.754150390625 495.5499877929688 792.9525756835938 279.4519958496094 836.3569946289062 C 186.8611755371094 854.9542846679688 82.15911102294922 887.6903076171875 -15.06690979003906 887.6903076171875 C -144.7570190429688 887.6903076171875 -261.1548461914062 829.4608154296875 -317.8572082519531 601.7575073242188 C -404.2005004882812 255.0231323242188 -58.54568481445312 26.9276123046875 154.2720642089844 26.9276123046875 Z" stroke="none" fill="#fff"/></g></svg>